<svg width="375" height="375" viewBox="0 0 375 375" fill="none" xmlns="http://www.w3.org/2000/svg">
  <path fill-rule="evenodd" clip-rule="evenodd" d="M365.778 127.876C373.944 132.667 376.696 143.205 371.905 151.371L246.296 365.681C243.977 369.637 240.258 372.455 235.82 373.612C232.714 374.423 229.514 374.352 226.518 373.44C225.236 373.051 223.988 372.508 222.803 371.813L8.49447 246.203C4.53675 243.885 1.72075 240.162 0.562993 235.727C-0.593883 231.288 0.0446906 226.665 2.36305 222.707L127.973 8.39805C130.353 4.34497 134.152 1.62586 138.373 0.500746C142.594 -0.624379 147.781 0.197522 151.64 2.45435L196.433 28.6242L365.778 127.876ZM233.235 358.025L358.845 143.717C359.407 142.752 359.084 141.507 358.121 140.944L143.812 15.3346C143.67 15.2506 143.525 15.1902 143.375 15.1447C142.501 14.8787 141.523 15.2346 141.036 16.0581L15.4297 230.368C15.0773 230.963 15.1208 231.531 15.216 231.903C15.312 232.272 15.5545 232.79 16.1505 233.139L230.46 358.749L230.464 358.75C231.06 359.099 231.627 359.059 232 358.96C232.368 358.864 232.882 358.624 233.235 358.025Z" transform="translate(0.0770569 0.0354309)"/>
  <path d="M130.27 97.3151L162.792 116.373C163.532 116.81 164.305 117.143 165.093 117.383C169.739 118.796 174.924 116.903 177.485 112.537L196.545 80.0201C199.536 74.9116 197.818 68.3177 192.71 65.3268L160.189 46.2653C155.085 43.2717 148.49 44.9935 145.496 50.101L126.435 82.618C124.988 85.0931 124.587 87.9841 125.31 90.7601C126.034 93.5362 127.796 95.8644 130.27 97.3151ZM156.333 61.5591L181.253 76.161L166.646 101.083L141.728 86.4771L156.333 61.5591Z" transform="translate(0.0770569 0.0354309)"/>
  <path d="M195.033 136.297L227.554 155.359C228.296 155.793 229.067 156.129 229.856 156.369C234.497 157.781 239.686 155.889 242.247 151.523L261.307 119.006C264.3 113.894 262.58 107.304 257.473 104.309L224.951 85.2513C219.847 82.2577 213.254 83.9758 210.259 89.0832L191.197 121.604C188.203 126.711 189.926 133.303 195.033 136.297ZM221.097 100.541L246.015 115.147L231.409 140.065L206.49 125.463L221.097 100.541Z" transform="translate(0.0770569 0.0354309)"/>
  <path d="M324.205 143.425L291.687 124.368C289.213 122.917 286.322 122.516 283.546 123.239C280.77 123.963 278.445 125.726 276.995 128.2L257.932 160.724C254.942 165.829 256.662 172.419 261.765 175.413L261.769 175.414L294.287 194.471C295.028 194.908 295.807 195.247 296.61 195.492C298.486 196.062 300.485 196.107 302.428 195.599C305.205 194.872 307.534 193.11 308.979 190.639L328.041 158.118C331.036 153.011 329.316 146.42 324.205 143.425ZM298.145 179.182L273.223 164.575L287.829 139.657L312.751 154.264L298.145 179.182Z" transform="translate(0.0770569 0.0354309)"/>
  <path d="M155.455 146.627C156.906 144.153 157.303 141.261 156.58 138.485C155.856 135.709 154.098 133.381 151.619 131.933L119.102 112.873C113.996 109.875 107.4 111.6 104.409 116.709L85.3485 149.226C83.8978 151.7 83.4999 154.592 84.2235 157.368C84.947 160.144 86.7064 162.467 89.1841 163.919L121.701 182.979C122.443 183.413 123.214 183.75 124.007 183.991C128.648 185.403 133.837 183.51 136.395 179.144L155.455 146.627ZM125.559 167.69L100.637 153.084L115.244 128.162L140.162 142.768L125.559 167.69Z" transform="translate(0.0770569 0.0354309)"/>
  <path d="M222.191 185.743C223.638 183.268 224.04 180.377 223.316 177.601C222.592 174.825 220.83 172.497 218.356 171.046L185.838 151.989C180.731 148.995 174.137 150.713 171.142 155.82L152.085 188.342C150.634 190.816 150.232 193.707 150.956 196.483C151.679 199.259 153.443 201.584 155.917 203.034L188.437 222.096C189.179 222.529 189.958 222.868 190.761 223.113C192.634 223.682 194.633 223.727 196.579 223.221C199.352 222.496 201.68 220.734 203.131 218.26L222.191 185.743ZM192.293 206.802L167.375 192.196L181.977 167.277L206.898 181.884L192.293 206.802Z" transform="translate(0.0770569 0.0354309)"/>
  <path d="M285.093 210.162L252.572 191.1C247.468 188.107 240.873 189.829 237.879 194.936L218.818 227.453C217.371 229.928 216.97 232.819 217.693 235.595C218.417 238.371 220.179 240.699 222.653 242.15L255.171 261.207C255.912 261.644 256.69 261.983 257.494 262.228C259.37 262.798 261.369 262.843 263.312 262.335C266.088 261.612 268.416 259.85 269.868 257.372L288.925 224.854C291.919 219.747 290.2 213.156 285.093 210.162ZM259.029 245.918L234.111 231.312L248.718 206.39L273.635 221L259.029 245.918Z" transform="translate(0.0770569 0.0354309)"/>
  <path d="M112.504 198.666L79.9861 179.609C74.8824 176.616 68.2885 178.334 65.2939 183.441L46.2324 215.962C43.2377 221.069 44.9607 227.661 50.0681 230.655L82.5851 249.716C83.3306 250.151 84.103 250.484 84.8917 250.723C89.5332 252.135 94.7214 250.247 97.2822 245.881L116.34 213.359C119.335 208.252 117.615 201.662 112.504 198.666ZM86.4442 234.423L61.5251 219.821L76.1281 194.898L101.05 209.505L86.4442 234.423Z" transform="translate(0.0770569 0.0354309)"/>
  <path d="M179.241 237.782L146.724 218.721C144.249 217.274 141.358 216.873 138.582 217.596C135.806 218.32 133.481 220.083 132.031 222.557L112.966 255.076C109.978 260.186 111.698 266.776 116.801 269.77L116.805 269.771L149.323 288.828C150.064 289.265 150.84 289.599 151.629 289.839C156.27 291.251 161.459 289.359 164.016 284.992L183.077 252.475C184.527 250.001 184.929 247.11 184.206 244.334C183.477 241.56 181.715 239.232 179.241 237.782ZM153.181 273.539L128.259 258.932L142.865 234.014L167.788 248.617L153.181 273.539Z" transform="translate(0.0770569 0.0354309)"/>
  <path d="M245.977 276.898L213.46 257.837C210.986 256.387 208.093 255.989 205.317 256.712C202.542 257.436 200.214 259.194 198.763 261.672L179.706 294.19C178.255 296.664 177.854 299.555 178.577 302.331C179.301 305.107 181.063 307.435 183.538 308.882L216.059 327.944C216.8 328.378 217.572 328.714 218.36 328.954C223.002 330.366 228.191 328.474 230.752 324.108L249.812 291.591C251.259 289.116 251.661 286.225 250.937 283.449C250.214 280.673 248.452 278.345 245.977 276.898ZM219.917 312.655L194.995 298.048L209.602 273.126L234.52 287.732L219.917 312.655Z" transform="translate(0.0770569 0.0354309)"/>
</svg>
